<mxfile host="app.diagrams.net" modified="2024-03-08T03:46:25.146Z" agent="Mozilla/5.0 (Windows NT 10.0; Win64; x64) AppleWebKit/537.36 (KHTML, like Gecko) Chrome/122.0.0.0 Safari/537.36" etag="lBBxnztplN8_-Mp_zl_1" version="24.0.2" type="github">
  <diagram name="Page-1" id="xZqrpQoWXWdg2QHDlLa8">
    <mxGraphModel dx="3209" dy="1925" grid="1" gridSize="10" guides="1" tooltips="1" connect="1" arrows="1" fold="1" page="1" pageScale="1" pageWidth="850" pageHeight="1100" math="0" shadow="0">
      <root>
        <mxCell id="0" />
        <mxCell id="1" parent="0" />
        <mxCell id="kmndzjtyYsxwTEhdyWk3-5" value="Edit Profile" style="swimlane;fontStyle=0;childLayout=stackLayout;horizontal=1;startSize=30;horizontalStack=0;resizeParent=1;resizeParentMax=0;resizeLast=0;collapsible=1;marginBottom=0;whiteSpace=wrap;html=1;" parent="1" vertex="1">
          <mxGeometry x="-690" y="-210" width="150" height="250" as="geometry" />
        </mxCell>
        <mxCell id="kmndzjtyYsxwTEhdyWk3-6" value="Upload profile photo" style="text;strokeColor=none;fillColor=none;align=left;verticalAlign=middle;spacingLeft=4;spacingRight=4;overflow=hidden;points=[[0,0.5],[1,0.5]];portConstraint=eastwest;rotatable=0;whiteSpace=wrap;html=1;" parent="kmndzjtyYsxwTEhdyWk3-5" vertex="1">
          <mxGeometry y="30" width="150" height="30" as="geometry" />
        </mxCell>
        <mxCell id="kmndzjtyYsxwTEhdyWk3-7" value="remove profile photo" style="text;strokeColor=none;fillColor=none;align=left;verticalAlign=middle;spacingLeft=4;spacingRight=4;overflow=hidden;points=[[0,0.5],[1,0.5]];portConstraint=eastwest;rotatable=0;whiteSpace=wrap;html=1;" parent="kmndzjtyYsxwTEhdyWk3-5" vertex="1">
          <mxGeometry y="60" width="150" height="30" as="geometry" />
        </mxCell>
        <mxCell id="kmndzjtyYsxwTEhdyWk3-8" value="disable/enable location" style="text;strokeColor=none;fillColor=none;align=left;verticalAlign=middle;spacingLeft=4;spacingRight=4;overflow=hidden;points=[[0,0.5],[1,0.5]];portConstraint=eastwest;rotatable=0;whiteSpace=wrap;html=1;" parent="kmndzjtyYsxwTEhdyWk3-5" vertex="1">
          <mxGeometry y="90" width="150" height="30" as="geometry" />
        </mxCell>
        <mxCell id="kmndzjtyYsxwTEhdyWk3-9" value="update info (name, homepage, contact info)" style="text;strokeColor=none;fillColor=none;align=left;verticalAlign=middle;spacingLeft=4;spacingRight=4;overflow=hidden;points=[[0,0.5],[1,0.5]];portConstraint=eastwest;rotatable=0;whiteSpace=wrap;html=1;" parent="kmndzjtyYsxwTEhdyWk3-5" vertex="1">
          <mxGeometry y="120" width="150" height="40" as="geometry" />
        </mxCell>
        <mxCell id="kmndzjtyYsxwTEhdyWk3-229" value="Add organizer role" style="text;strokeColor=none;fillColor=none;align=left;verticalAlign=middle;spacingLeft=4;spacingRight=4;overflow=hidden;points=[[0,0.5],[1,0.5]];portConstraint=eastwest;rotatable=0;whiteSpace=wrap;html=1;" parent="kmndzjtyYsxwTEhdyWk3-5" vertex="1">
          <mxGeometry y="160" width="150" height="30" as="geometry" />
        </mxCell>
        <mxCell id="kmndzjtyYsxwTEhdyWk3-10" value="Save Changes button&lt;br&gt;&lt;span style=&quot;white-space: pre;&quot;&gt;&#x9;&lt;/span&gt;- check validity" style="text;strokeColor=none;fillColor=none;align=left;verticalAlign=middle;spacingLeft=4;spacingRight=4;overflow=hidden;points=[[0,0.5],[1,0.5]];portConstraint=eastwest;rotatable=0;whiteSpace=wrap;html=1;" parent="kmndzjtyYsxwTEhdyWk3-5" vertex="1">
          <mxGeometry y="190" width="150" height="30" as="geometry" />
        </mxCell>
        <mxCell id="kmndzjtyYsxwTEhdyWk3-11" value="Cancel button" style="text;strokeColor=none;fillColor=none;align=left;verticalAlign=middle;spacingLeft=4;spacingRight=4;overflow=hidden;points=[[0,0.5],[1,0.5]];portConstraint=eastwest;rotatable=0;whiteSpace=wrap;html=1;" parent="kmndzjtyYsxwTEhdyWk3-5" vertex="1">
          <mxGeometry y="220" width="150" height="30" as="geometry" />
        </mxCell>
        <mxCell id="kmndzjtyYsxwTEhdyWk3-12" style="edgeStyle=orthogonalEdgeStyle;rounded=0;orthogonalLoop=1;jettySize=auto;html=1;exitX=1;exitY=0.5;exitDx=0;exitDy=0;entryX=1.006;entryY=0.063;entryDx=0;entryDy=0;entryPerimeter=0;" parent="kmndzjtyYsxwTEhdyWk3-5" source="kmndzjtyYsxwTEhdyWk3-10" target="kmndzjtyYsxwTEhdyWk3-5" edge="1">
          <mxGeometry relative="1" as="geometry">
            <Array as="points">
              <mxPoint x="230" y="205" />
              <mxPoint x="230" y="12" />
              <mxPoint x="151" y="12" />
            </Array>
          </mxGeometry>
        </mxCell>
        <mxCell id="kmndzjtyYsxwTEhdyWk3-14" value="Save Change valid" style="text;html=1;align=center;verticalAlign=middle;resizable=0;points=[];autosize=1;strokeColor=none;fillColor=none;" parent="1" vertex="1">
          <mxGeometry x="-460" y="40" width="120" height="30" as="geometry" />
        </mxCell>
        <mxCell id="kmndzjtyYsxwTEhdyWk3-19" value="Save Change invalid + Toast" style="text;html=1;align=center;verticalAlign=middle;resizable=0;points=[];autosize=1;strokeColor=none;fillColor=none;" parent="1" vertex="1">
          <mxGeometry x="-470" y="-60" width="180" height="30" as="geometry" />
        </mxCell>
        <mxCell id="kmndzjtyYsxwTEhdyWk3-25" value="&lt;ul&gt;&lt;li&gt;Upon app download, create unique device ID and profile&lt;/li&gt;&lt;li&gt;new user automatically has attendee role&lt;/li&gt;&lt;li&gt;to gain organizer role, edit profile&lt;/li&gt;&lt;/ul&gt;&lt;span class=&quot;custom-cursor-default-hover&quot; style=&quot;&quot;&gt;&lt;br&gt;&lt;/span&gt;" style="shape=note;size=20;whiteSpace=wrap;html=1;align=left;" parent="1" vertex="1">
          <mxGeometry x="-1100" y="150" width="210" height="140" as="geometry" />
        </mxCell>
        <mxCell id="kmndzjtyYsxwTEhdyWk3-27" value="Home" style="swimlane;fontStyle=0;childLayout=stackLayout;horizontal=1;startSize=30;horizontalStack=0;resizeParent=1;resizeParentMax=0;resizeLast=0;collapsible=1;marginBottom=0;whiteSpace=wrap;html=1;" parent="1" vertex="1">
          <mxGeometry x="-690" y="160" width="140" height="180" as="geometry" />
        </mxCell>
        <mxCell id="kmndzjtyYsxwTEhdyWk3-28" value="Edit Profile button" style="text;strokeColor=none;fillColor=none;align=left;verticalAlign=middle;spacingLeft=4;spacingRight=4;overflow=hidden;points=[[0,0.5],[1,0.5]];portConstraint=eastwest;rotatable=0;whiteSpace=wrap;html=1;" parent="kmndzjtyYsxwTEhdyWk3-27" vertex="1">
          <mxGeometry y="30" width="140" height="30" as="geometry" />
        </mxCell>
        <mxCell id="kmndzjtyYsxwTEhdyWk3-193" value="List events button" style="text;strokeColor=none;fillColor=none;align=left;verticalAlign=middle;spacingLeft=4;spacingRight=4;overflow=hidden;points=[[0,0.5],[1,0.5]];portConstraint=eastwest;rotatable=0;whiteSpace=wrap;html=1;" parent="kmndzjtyYsxwTEhdyWk3-27" vertex="1">
          <mxGeometry y="60" width="140" height="30" as="geometry" />
        </mxCell>
        <mxCell id="kmndzjtyYsxwTEhdyWk3-29" value="Scanner&lt;span style=&quot;color: rgba(0, 0, 0, 0); font-family: monospace; font-size: 0px; text-wrap: nowrap;&quot;&gt;%3CmxGraphModel%3E%3Croot%3E%3CmxCell%20id%3D%220%22%2F%3E%3CmxCell%20id%3D%221%22%20parent%3D%220%22%2F%3E%3CmxCell%20id%3D%222%22%20style%3D%22edgeStyle%3DorthogonalEdgeStyle%3Brounded%3D0%3BorthogonalLoop%3D1%3BjettySize%3Dauto%3Bhtml%3D1%3BexitX%3D1%3BexitY%3D0.5%3BexitDx%3D0%3BexitDy%3D0%3BentryX%3D0.25%3BentryY%3D0%3BentryDx%3D0%3BentryDy%3D0%3B%22%20edge%3D%221%22%20parent%3D%221%22%3E%3CmxGeometry%20relative%3D%221%22%20as%3D%22geometry%22%3E%3CmxPoint%20x%3D%22-250%22%20y%3D%22425%22%20as%3D%22sourcePoint%22%2F%3E%3CmxPoint%20x%3D%22-130%22%20y%3D%22670%22%20as%3D%22targetPoint%22%2F%3E%3C%2FmxGeometry%3E%3C%2FmxCell%3E%3C%2Froot%3E%3C%2FmxGraphModel%3E&lt;/span&gt;" style="text;strokeColor=none;fillColor=none;align=left;verticalAlign=middle;spacingLeft=4;spacingRight=4;overflow=hidden;points=[[0,0.5],[1,0.5]];portConstraint=eastwest;rotatable=0;whiteSpace=wrap;html=1;" parent="kmndzjtyYsxwTEhdyWk3-27" vertex="1">
          <mxGeometry y="90" width="140" height="30" as="geometry" />
        </mxCell>
        <mxCell id="F2HNqbarM3M1jNaJzqSq-10" value="Notification" style="text;strokeColor=none;fillColor=none;align=left;verticalAlign=middle;spacingLeft=4;spacingRight=4;overflow=hidden;points=[[0,0.5],[1,0.5]];portConstraint=eastwest;rotatable=0;whiteSpace=wrap;html=1;" vertex="1" parent="kmndzjtyYsxwTEhdyWk3-27">
          <mxGeometry y="120" width="140" height="30" as="geometry" />
        </mxCell>
        <mxCell id="F2HNqbarM3M1jNaJzqSq-54" value="Map button" style="text;strokeColor=none;fillColor=none;align=left;verticalAlign=middle;spacingLeft=4;spacingRight=4;overflow=hidden;points=[[0,0.5],[1,0.5]];portConstraint=eastwest;rotatable=0;whiteSpace=wrap;html=1;" vertex="1" parent="kmndzjtyYsxwTEhdyWk3-27">
          <mxGeometry y="150" width="140" height="30" as="geometry" />
        </mxCell>
        <mxCell id="kmndzjtyYsxwTEhdyWk3-31" value="Event Page (Sign Up)" style="swimlane;fontStyle=0;childLayout=stackLayout;horizontal=1;startSize=30;horizontalStack=0;resizeParent=1;resizeParentMax=0;resizeLast=0;collapsible=1;marginBottom=0;whiteSpace=wrap;html=1;" parent="1" vertex="1">
          <mxGeometry x="-590" y="730" width="230" height="140" as="geometry" />
        </mxCell>
        <mxCell id="kmndzjtyYsxwTEhdyWk3-32" value="Displays Event details and poster" style="text;strokeColor=none;fillColor=none;align=left;verticalAlign=middle;spacingLeft=4;spacingRight=4;overflow=hidden;points=[[0,0.5],[1,0.5]];portConstraint=eastwest;rotatable=0;whiteSpace=wrap;html=1;" parent="kmndzjtyYsxwTEhdyWk3-31" vertex="1">
          <mxGeometry y="30" width="230" height="30" as="geometry" />
        </mxCell>
        <mxCell id="kmndzjtyYsxwTEhdyWk3-33" value="Sign Up&amp;nbsp;&lt;div&gt;&lt;span style=&quot;white-space: pre;&quot;&gt;&#x9;&lt;/span&gt;Event is added to users event &lt;span style=&quot;white-space: pre;&quot;&gt;&#x9;&lt;/span&gt;attendance list&lt;br&gt;&lt;/div&gt;" style="text;strokeColor=none;fillColor=none;align=left;verticalAlign=middle;spacingLeft=4;spacingRight=4;overflow=hidden;points=[[0,0.5],[1,0.5]];portConstraint=eastwest;rotatable=0;whiteSpace=wrap;html=1;" parent="kmndzjtyYsxwTEhdyWk3-31" vertex="1">
          <mxGeometry y="60" width="230" height="50" as="geometry" />
        </mxCell>
        <mxCell id="kmndzjtyYsxwTEhdyWk3-112" value="Return button" style="text;strokeColor=none;fillColor=none;align=left;verticalAlign=middle;spacingLeft=4;spacingRight=4;overflow=hidden;points=[[0,0.5],[1,0.5]];portConstraint=eastwest;rotatable=0;whiteSpace=wrap;html=1;" parent="kmndzjtyYsxwTEhdyWk3-31" vertex="1">
          <mxGeometry y="110" width="230" height="30" as="geometry" />
        </mxCell>
        <mxCell id="kmndzjtyYsxwTEhdyWk3-35" value="Scanned QR" style="text;html=1;align=center;verticalAlign=middle;resizable=0;points=[];autosize=1;strokeColor=none;fillColor=none;" parent="1" vertex="1">
          <mxGeometry x="-695" y="450" width="90" height="30" as="geometry" />
        </mxCell>
        <mxCell id="kmndzjtyYsxwTEhdyWk3-40" value="Create event" style="swimlane;fontStyle=0;childLayout=stackLayout;horizontal=1;startSize=30;horizontalStack=0;resizeParent=1;resizeParentMax=0;resizeLast=0;collapsible=1;marginBottom=0;whiteSpace=wrap;html=1;" parent="1" vertex="1">
          <mxGeometry x="740" y="-110" width="190" height="330" as="geometry" />
        </mxCell>
        <mxCell id="kmndzjtyYsxwTEhdyWk3-41" value="input event name and details" style="text;strokeColor=none;fillColor=none;align=left;verticalAlign=middle;spacingLeft=4;spacingRight=4;overflow=hidden;points=[[0,0.5],[1,0.5]];portConstraint=eastwest;rotatable=0;whiteSpace=wrap;html=1;" parent="kmndzjtyYsxwTEhdyWk3-40" vertex="1">
          <mxGeometry y="30" width="190" height="30" as="geometry" />
        </mxCell>
        <mxCell id="kmndzjtyYsxwTEhdyWk3-42" value="reuse QR for check in&lt;br&gt;&lt;blockquote style=&quot;margin: 0 0 0 40px; border: none; padding: 0px;&quot;&gt;select true&amp;nbsp;&lt;/blockquote&gt;&lt;blockquote style=&quot;margin: 0 0 0 40px; border: none; padding: 0px;&quot;&gt;false - unique generated&lt;/blockquote&gt;" style="text;strokeColor=none;fillColor=none;align=left;verticalAlign=middle;spacingLeft=4;spacingRight=4;overflow=hidden;points=[[0,0.5],[1,0.5]];portConstraint=eastwest;rotatable=0;whiteSpace=wrap;html=1;" parent="kmndzjtyYsxwTEhdyWk3-40" vertex="1">
          <mxGeometry y="60" width="190" height="60" as="geometry" />
        </mxCell>
        <mxCell id="kmndzjtyYsxwTEhdyWk3-150" value="promotion QR&lt;br&gt;&lt;blockquote style=&quot;margin: 0 0 0 40px; border: none; padding: 0px;&quot;&gt;true/false&lt;/blockquote&gt;" style="text;strokeColor=none;fillColor=none;align=left;verticalAlign=middle;spacingLeft=4;spacingRight=4;overflow=hidden;points=[[0,0.5],[1,0.5]];portConstraint=eastwest;rotatable=0;whiteSpace=wrap;html=1;" parent="kmndzjtyYsxwTEhdyWk3-40" vertex="1">
          <mxGeometry y="120" width="190" height="40" as="geometry" />
        </mxCell>
        <mxCell id="kmndzjtyYsxwTEhdyWk3-286" value="Upload event poster" style="text;strokeColor=none;fillColor=none;align=left;verticalAlign=middle;spacingLeft=4;spacingRight=4;overflow=hidden;points=[[0,0.5],[1,0.5]];portConstraint=eastwest;rotatable=0;whiteSpace=wrap;html=1;" parent="kmndzjtyYsxwTEhdyWk3-40" vertex="1">
          <mxGeometry y="160" width="190" height="40" as="geometry" />
        </mxCell>
        <mxCell id="kmndzjtyYsxwTEhdyWk3-151" value="limit the number of attendees&lt;blockquote style=&quot;margin: 0 0 0 40px; border: none; padding: 0px;&quot;&gt;true - input number&lt;/blockquote&gt;&lt;blockquote style=&quot;margin: 0 0 0 40px; border: none; padding: 0px;&quot;&gt;false - leave empty&lt;/blockquote&gt;" style="text;strokeColor=none;fillColor=none;align=left;verticalAlign=middle;spacingLeft=4;spacingRight=4;overflow=hidden;points=[[0,0.5],[1,0.5]];portConstraint=eastwest;rotatable=0;whiteSpace=wrap;html=1;" parent="kmndzjtyYsxwTEhdyWk3-40" vertex="1">
          <mxGeometry y="200" width="190" height="50" as="geometry" />
        </mxCell>
        <mxCell id="kmndzjtyYsxwTEhdyWk3-44" value="Confirm&lt;br&gt;&lt;span style=&quot;white-space: pre;&quot;&gt;&#x9;&lt;/span&gt;- check validity" style="text;strokeColor=none;fillColor=none;align=left;verticalAlign=middle;spacingLeft=4;spacingRight=4;overflow=hidden;points=[[0,0.5],[1,0.5]];portConstraint=eastwest;rotatable=0;whiteSpace=wrap;html=1;" parent="kmndzjtyYsxwTEhdyWk3-40" vertex="1">
          <mxGeometry y="250" width="190" height="40" as="geometry" />
        </mxCell>
        <mxCell id="kmndzjtyYsxwTEhdyWk3-153" style="edgeStyle=orthogonalEdgeStyle;rounded=0;orthogonalLoop=1;jettySize=auto;html=1;exitX=1;exitY=0.5;exitDx=0;exitDy=0;entryX=1.002;entryY=0.065;entryDx=0;entryDy=0;entryPerimeter=0;" parent="kmndzjtyYsxwTEhdyWk3-40" source="kmndzjtyYsxwTEhdyWk3-44" target="kmndzjtyYsxwTEhdyWk3-40" edge="1">
          <mxGeometry relative="1" as="geometry" />
        </mxCell>
        <mxCell id="kmndzjtyYsxwTEhdyWk3-185" value="Cancel" style="text;strokeColor=none;fillColor=none;align=left;verticalAlign=middle;spacingLeft=4;spacingRight=4;overflow=hidden;points=[[0,0.5],[1,0.5]];portConstraint=eastwest;rotatable=0;whiteSpace=wrap;html=1;" parent="kmndzjtyYsxwTEhdyWk3-40" vertex="1">
          <mxGeometry y="290" width="190" height="40" as="geometry" />
        </mxCell>
        <mxCell id="kmndzjtyYsxwTEhdyWk3-47" value="Confirm invalid + Toast" style="text;html=1;align=center;verticalAlign=middle;resizable=0;points=[];autosize=1;strokeColor=none;fillColor=none;" parent="1" vertex="1">
          <mxGeometry x="940" width="150" height="30" as="geometry" />
        </mxCell>
        <mxCell id="kmndzjtyYsxwTEhdyWk3-48" value="Organizer Event Page" style="swimlane;fontStyle=0;childLayout=stackLayout;horizontal=1;startSize=30;horizontalStack=0;resizeParent=1;resizeParentMax=0;resizeLast=0;collapsible=1;marginBottom=0;whiteSpace=wrap;html=1;" parent="1" vertex="1">
          <mxGeometry x="460" y="310" width="140" height="120" as="geometry" />
        </mxCell>
        <mxCell id="kmndzjtyYsxwTEhdyWk3-49" value="view attendance" style="text;strokeColor=none;fillColor=none;align=left;verticalAlign=middle;spacingLeft=4;spacingRight=4;overflow=hidden;points=[[0,0.5],[1,0.5]];portConstraint=eastwest;rotatable=0;whiteSpace=wrap;html=1;" parent="kmndzjtyYsxwTEhdyWk3-48" vertex="1">
          <mxGeometry y="30" width="140" height="30" as="geometry" />
        </mxCell>
        <mxCell id="kmndzjtyYsxwTEhdyWk3-50" value="create announcement" style="text;strokeColor=none;fillColor=none;align=left;verticalAlign=middle;spacingLeft=4;spacingRight=4;overflow=hidden;points=[[0,0.5],[1,0.5]];portConstraint=eastwest;rotatable=0;whiteSpace=wrap;html=1;" parent="kmndzjtyYsxwTEhdyWk3-48" vertex="1">
          <mxGeometry y="60" width="140" height="30" as="geometry" />
        </mxCell>
        <mxCell id="kmndzjtyYsxwTEhdyWk3-190" value="Return button" style="text;strokeColor=none;fillColor=none;align=left;verticalAlign=middle;spacingLeft=4;spacingRight=4;overflow=hidden;points=[[0,0.5],[1,0.5]];portConstraint=eastwest;rotatable=0;whiteSpace=wrap;html=1;" parent="kmndzjtyYsxwTEhdyWk3-48" vertex="1">
          <mxGeometry y="90" width="140" height="30" as="geometry" />
        </mxCell>
        <mxCell id="kmndzjtyYsxwTEhdyWk3-53" value="&lt;span style=&quot;color: rgb(0, 0, 0); font-family: Helvetica; font-size: 12px; font-style: normal; font-variant-ligatures: normal; font-variant-caps: normal; font-weight: 400; letter-spacing: normal; orphans: 2; text-align: center; text-indent: 0px; text-transform: none; widows: 2; word-spacing: 0px; -webkit-text-stroke-width: 0px; background-color: rgb(251, 251, 251); text-decoration-thickness: initial; text-decoration-style: initial; text-decoration-color: initial; float: none; display: inline !important;&quot;&gt;Confirm valid, event added to event list&lt;/span&gt;" style="text;whiteSpace=wrap;html=1;" parent="1" vertex="1">
          <mxGeometry x="950" y="160" width="220" height="30" as="geometry" />
        </mxCell>
        <mxCell id="kmndzjtyYsxwTEhdyWk3-59" value="Attendee detail" style="swimlane;fontStyle=0;childLayout=stackLayout;horizontal=1;startSize=30;horizontalStack=0;resizeParent=1;resizeParentMax=0;resizeLast=0;collapsible=1;marginBottom=0;whiteSpace=wrap;html=1;" parent="1" vertex="1">
          <mxGeometry x="970" y="330" width="140" height="120" as="geometry" />
        </mxCell>
        <mxCell id="kmndzjtyYsxwTEhdyWk3-60" value="display&amp;nbsp;milestone, location, history, times they have checked into and event" style="text;strokeColor=none;fillColor=none;align=left;verticalAlign=middle;spacingLeft=4;spacingRight=4;overflow=hidden;points=[[0,0.5],[1,0.5]];portConstraint=eastwest;rotatable=0;whiteSpace=wrap;html=1;" parent="kmndzjtyYsxwTEhdyWk3-59" vertex="1">
          <mxGeometry y="30" width="140" height="70" as="geometry" />
        </mxCell>
        <mxCell id="kmndzjtyYsxwTEhdyWk3-61" value="Return button" style="text;strokeColor=none;fillColor=none;align=left;verticalAlign=middle;spacingLeft=4;spacingRight=4;overflow=hidden;points=[[0,0.5],[1,0.5]];portConstraint=eastwest;rotatable=0;whiteSpace=wrap;html=1;" parent="kmndzjtyYsxwTEhdyWk3-59" vertex="1">
          <mxGeometry y="100" width="140" height="20" as="geometry" />
        </mxCell>
        <mxCell id="kmndzjtyYsxwTEhdyWk3-63" value="Make announcement" style="swimlane;fontStyle=0;childLayout=stackLayout;horizontal=1;startSize=30;horizontalStack=0;resizeParent=1;resizeParentMax=0;resizeLast=0;collapsible=1;marginBottom=0;whiteSpace=wrap;html=1;" parent="1" vertex="1">
          <mxGeometry x="470" y="640" width="140" height="120" as="geometry" />
        </mxCell>
        <mxCell id="kmndzjtyYsxwTEhdyWk3-64" value="input text" style="text;strokeColor=none;fillColor=none;align=left;verticalAlign=middle;spacingLeft=4;spacingRight=4;overflow=hidden;points=[[0,0.5],[1,0.5]];portConstraint=eastwest;rotatable=0;whiteSpace=wrap;html=1;" parent="kmndzjtyYsxwTEhdyWk3-63" vertex="1">
          <mxGeometry y="30" width="140" height="30" as="geometry" />
        </mxCell>
        <mxCell id="kmndzjtyYsxwTEhdyWk3-65" value="send out&lt;br&gt;&lt;span style=&quot;white-space: pre;&quot;&gt;&#x9;&lt;/span&gt;- check validity" style="text;strokeColor=none;fillColor=none;align=left;verticalAlign=middle;spacingLeft=4;spacingRight=4;overflow=hidden;points=[[0,0.5],[1,0.5]];portConstraint=eastwest;rotatable=0;whiteSpace=wrap;html=1;" parent="kmndzjtyYsxwTEhdyWk3-63" vertex="1">
          <mxGeometry y="60" width="140" height="30" as="geometry" />
        </mxCell>
        <mxCell id="kmndzjtyYsxwTEhdyWk3-66" value="cancel" style="text;strokeColor=none;fillColor=none;align=left;verticalAlign=middle;spacingLeft=4;spacingRight=4;overflow=hidden;points=[[0,0.5],[1,0.5]];portConstraint=eastwest;rotatable=0;whiteSpace=wrap;html=1;" parent="kmndzjtyYsxwTEhdyWk3-63" vertex="1">
          <mxGeometry y="90" width="140" height="30" as="geometry" />
        </mxCell>
        <mxCell id="kmndzjtyYsxwTEhdyWk3-67" style="edgeStyle=orthogonalEdgeStyle;rounded=0;orthogonalLoop=1;jettySize=auto;html=1;exitX=1;exitY=0.5;exitDx=0;exitDy=0;entryX=1.011;entryY=-0.133;entryDx=0;entryDy=0;entryPerimeter=0;" parent="kmndzjtyYsxwTEhdyWk3-63" source="kmndzjtyYsxwTEhdyWk3-65" target="kmndzjtyYsxwTEhdyWk3-64" edge="1">
          <mxGeometry relative="1" as="geometry" />
        </mxCell>
        <mxCell id="kmndzjtyYsxwTEhdyWk3-68" style="edgeStyle=orthogonalEdgeStyle;rounded=0;orthogonalLoop=1;jettySize=auto;html=1;exitX=1;exitY=0.5;exitDx=0;exitDy=0;entryX=1.007;entryY=0.144;entryDx=0;entryDy=0;entryPerimeter=0;" parent="1" source="kmndzjtyYsxwTEhdyWk3-50" target="kmndzjtyYsxwTEhdyWk3-63" edge="1">
          <mxGeometry relative="1" as="geometry" />
        </mxCell>
        <mxCell id="kmndzjtyYsxwTEhdyWk3-69" style="edgeStyle=orthogonalEdgeStyle;rounded=0;orthogonalLoop=1;jettySize=auto;html=1;exitX=0;exitY=0.5;exitDx=0;exitDy=0;entryX=-0.003;entryY=0.155;entryDx=0;entryDy=0;entryPerimeter=0;" parent="1" source="kmndzjtyYsxwTEhdyWk3-65" target="kmndzjtyYsxwTEhdyWk3-48" edge="1">
          <mxGeometry relative="1" as="geometry" />
        </mxCell>
        <mxCell id="kmndzjtyYsxwTEhdyWk3-70" style="edgeStyle=orthogonalEdgeStyle;rounded=0;orthogonalLoop=1;jettySize=auto;html=1;exitX=0;exitY=0.5;exitDx=0;exitDy=0;entryX=0.024;entryY=0.054;entryDx=0;entryDy=0;entryPerimeter=0;" parent="1" source="kmndzjtyYsxwTEhdyWk3-66" target="kmndzjtyYsxwTEhdyWk3-48" edge="1">
          <mxGeometry relative="1" as="geometry">
            <Array as="points">
              <mxPoint x="470" y="740" />
              <mxPoint x="380" y="740" />
              <mxPoint x="380" y="311" />
              <mxPoint x="459" y="311" />
              <mxPoint x="459" y="310" />
              <mxPoint x="463" y="310" />
            </Array>
          </mxGeometry>
        </mxCell>
        <mxCell id="kmndzjtyYsxwTEhdyWk3-71" value="starting point" style="text;html=1;align=center;verticalAlign=middle;resizable=0;points=[];autosize=1;strokeColor=none;fillColor=none;" parent="1" vertex="1">
          <mxGeometry x="-1040" y="120" width="90" height="30" as="geometry" />
        </mxCell>
        <mxCell id="kmndzjtyYsxwTEhdyWk3-75" value="send out invalid + Toast" style="text;html=1;align=center;verticalAlign=middle;resizable=0;points=[];autosize=1;strokeColor=none;fillColor=none;" parent="1" vertex="1">
          <mxGeometry x="630" y="680" width="150" height="30" as="geometry" />
        </mxCell>
        <mxCell id="kmndzjtyYsxwTEhdyWk3-77" value="Browse events" style="swimlane;fontStyle=0;childLayout=stackLayout;horizontal=1;startSize=30;horizontalStack=0;resizeParent=1;resizeParentMax=0;resizeLast=0;collapsible=1;marginBottom=0;whiteSpace=wrap;html=1;" parent="1" vertex="1">
          <mxGeometry x="-120" y="-90" width="140" height="120" as="geometry" />
        </mxCell>
        <mxCell id="kmndzjtyYsxwTEhdyWk3-78" value="Display event details&lt;div&gt;&lt;br/&gt;&lt;/div&gt;" style="text;strokeColor=none;fillColor=none;align=left;verticalAlign=middle;spacingLeft=4;spacingRight=4;overflow=hidden;points=[[0,0.5],[1,0.5]];portConstraint=eastwest;rotatable=0;whiteSpace=wrap;html=1;" parent="kmndzjtyYsxwTEhdyWk3-77" vertex="1">
          <mxGeometry y="30" width="140" height="30" as="geometry" />
        </mxCell>
        <mxCell id="kmndzjtyYsxwTEhdyWk3-282" value="Press on event" style="text;strokeColor=none;fillColor=none;align=left;verticalAlign=middle;spacingLeft=4;spacingRight=4;overflow=hidden;points=[[0,0.5],[1,0.5]];portConstraint=eastwest;rotatable=0;whiteSpace=wrap;html=1;" parent="kmndzjtyYsxwTEhdyWk3-77" vertex="1">
          <mxGeometry y="60" width="140" height="30" as="geometry" />
        </mxCell>
        <mxCell id="kmndzjtyYsxwTEhdyWk3-80" value="Return button" style="text;strokeColor=none;fillColor=none;align=left;verticalAlign=middle;spacingLeft=4;spacingRight=4;overflow=hidden;points=[[0,0.5],[1,0.5]];portConstraint=eastwest;rotatable=0;whiteSpace=wrap;html=1;" parent="kmndzjtyYsxwTEhdyWk3-77" vertex="1">
          <mxGeometry y="90" width="140" height="30" as="geometry" />
        </mxCell>
        <mxCell id="kmndzjtyYsxwTEhdyWk3-211" style="edgeStyle=orthogonalEdgeStyle;rounded=0;orthogonalLoop=1;jettySize=auto;html=1;exitX=1;exitY=0.5;exitDx=0;exitDy=0;exitPerimeter=0;entryX=-0.014;entryY=0.133;entryDx=0;entryDy=0;entryPerimeter=0;" parent="1" source="kmndzjtyYsxwTEhdyWk3-90" target="kmndzjtyYsxwTEhdyWk3-27" edge="1">
          <mxGeometry relative="1" as="geometry">
            <mxPoint x="-630" y="685" as="sourcePoint" />
            <mxPoint x="-730" y="160" as="targetPoint" />
            <Array as="points">
              <mxPoint x="-620" y="700" />
              <mxPoint x="-720" y="700" />
              <mxPoint x="-720" y="180" />
            </Array>
          </mxGeometry>
        </mxCell>
        <mxCell id="kmndzjtyYsxwTEhdyWk3-90" value="OR" style="shape=xor;whiteSpace=wrap;html=1;rotation=90;" parent="1" vertex="1">
          <mxGeometry x="-650" y="630" width="60" height="40" as="geometry" />
        </mxCell>
        <mxCell id="kmndzjtyYsxwTEhdyWk3-100" value="Notification center" style="swimlane;fontStyle=0;childLayout=stackLayout;horizontal=1;startSize=30;horizontalStack=0;resizeParent=1;resizeParentMax=0;resizeLast=0;collapsible=1;marginBottom=0;whiteSpace=wrap;html=1;" parent="1" vertex="1">
          <mxGeometry x="-380" y="445" width="190" height="170" as="geometry" />
        </mxCell>
        <mxCell id="kmndzjtyYsxwTEhdyWk3-101" value="Displays important updates from event organizers" style="text;strokeColor=none;fillColor=none;align=left;verticalAlign=middle;spacingLeft=4;spacingRight=4;overflow=hidden;points=[[0,0.5],[1,0.5]];portConstraint=eastwest;rotatable=0;whiteSpace=wrap;html=1;" parent="kmndzjtyYsxwTEhdyWk3-100" vertex="1">
          <mxGeometry y="30" width="190" height="40" as="geometry" />
        </mxCell>
        <mxCell id="kmndzjtyYsxwTEhdyWk3-104" value="Select and delete notification" style="text;strokeColor=none;fillColor=none;align=left;verticalAlign=middle;spacingLeft=4;spacingRight=4;overflow=hidden;points=[[0,0.5],[1,0.5]];portConstraint=eastwest;rotatable=0;whiteSpace=wrap;html=1;" parent="kmndzjtyYsxwTEhdyWk3-100" vertex="1">
          <mxGeometry y="70" width="190" height="20" as="geometry" />
        </mxCell>
        <mxCell id="F2HNqbarM3M1jNaJzqSq-19" value="Scanner&lt;span style=&quot;color: rgba(0, 0, 0, 0); font-family: monospace; font-size: 0px; text-wrap: nowrap;&quot;&gt;%3CmxGraphModel%3E%3Croot%3E%3CmxCell%20id%3D%220%22%2F%3E%3CmxCell%20id%3D%221%22%20parent%3D%220%22%2F%3E%3CmxCell%20id%3D%222%22%20style%3D%22edgeStyle%3DorthogonalEdgeStyle%3Brounded%3D0%3BorthogonalLoop%3D1%3BjettySize%3Dauto%3Bhtml%3D1%3BexitX%3D1%3BexitY%3D0.5%3BexitDx%3D0%3BexitDy%3D0%3BentryX%3D0.25%3BentryY%3D0%3BentryDx%3D0%3BentryDy%3D0%3B%22%20edge%3D%221%22%20parent%3D%221%22%3E%3CmxGeometry%20relative%3D%221%22%20as%3D%22geometry%22%3E%3CmxPoint%20x%3D%22-250%22%20y%3D%22425%22%20as%3D%22sourcePoint%22%2F%3E%3CmxPoint%20x%3D%22-130%22%20y%3D%22670%22%20as%3D%22targetPoint%22%2F%3E%3C%2FmxGeometry%3E%3C%2FmxCell%3E%3C%2Froot%3E%3C%2FmxGraphModel%3E&lt;/span&gt;" style="text;strokeColor=none;fillColor=none;align=left;verticalAlign=middle;spacingLeft=4;spacingRight=4;overflow=hidden;points=[[0,0.5],[1,0.5]];portConstraint=eastwest;rotatable=0;whiteSpace=wrap;html=1;" vertex="1" parent="kmndzjtyYsxwTEhdyWk3-100">
          <mxGeometry y="90" width="190" height="30" as="geometry" />
        </mxCell>
        <mxCell id="F2HNqbarM3M1jNaJzqSq-20" value="Home" style="text;strokeColor=none;fillColor=none;align=left;verticalAlign=middle;spacingLeft=4;spacingRight=4;overflow=hidden;points=[[0,0.5],[1,0.5]];portConstraint=eastwest;rotatable=0;whiteSpace=wrap;html=1;" vertex="1" parent="kmndzjtyYsxwTEhdyWk3-100">
          <mxGeometry y="120" width="190" height="30" as="geometry" />
        </mxCell>
        <mxCell id="kmndzjtyYsxwTEhdyWk3-105" value="Clear" style="text;strokeColor=none;fillColor=none;align=left;verticalAlign=middle;spacingLeft=4;spacingRight=4;overflow=hidden;points=[[0,0.5],[1,0.5]];portConstraint=eastwest;rotatable=0;whiteSpace=wrap;html=1;" parent="kmndzjtyYsxwTEhdyWk3-100" vertex="1">
          <mxGeometry y="150" width="190" height="20" as="geometry" />
        </mxCell>
        <mxCell id="kmndzjtyYsxwTEhdyWk3-119" value="Attendee Event List" style="swimlane;fontStyle=0;childLayout=stackLayout;horizontal=1;startSize=30;horizontalStack=0;resizeParent=1;resizeParentMax=0;resizeLast=0;collapsible=1;marginBottom=0;whiteSpace=wrap;html=1;" parent="1" vertex="1">
          <mxGeometry x="-320" y="110" width="175" height="150" as="geometry" />
        </mxCell>
        <mxCell id="kmndzjtyYsxwTEhdyWk3-120" value="Displays&amp;nbsp;events attendee signed up for currently and in and in the future." style="text;strokeColor=none;fillColor=none;align=left;verticalAlign=middle;spacingLeft=4;spacingRight=4;overflow=hidden;points=[[0,0.5],[1,0.5]];portConstraint=eastwest;rotatable=0;whiteSpace=wrap;html=1;" parent="kmndzjtyYsxwTEhdyWk3-119" vertex="1">
          <mxGeometry y="30" width="175" height="60" as="geometry" />
        </mxCell>
        <mxCell id="kmndzjtyYsxwTEhdyWk3-128" value="Select event in attendee list" style="text;strokeColor=none;fillColor=none;align=left;verticalAlign=middle;spacingLeft=4;spacingRight=4;overflow=hidden;points=[[0,0.5],[1,0.5]];portConstraint=eastwest;rotatable=0;whiteSpace=wrap;html=1;" parent="kmndzjtyYsxwTEhdyWk3-119" vertex="1">
          <mxGeometry y="90" width="175" height="30" as="geometry" />
        </mxCell>
        <mxCell id="kmndzjtyYsxwTEhdyWk3-223" value="Browse button" style="text;strokeColor=none;fillColor=none;align=left;verticalAlign=middle;spacingLeft=4;spacingRight=4;overflow=hidden;points=[[0,0.5],[1,0.5]];portConstraint=eastwest;rotatable=0;whiteSpace=wrap;html=1;" parent="kmndzjtyYsxwTEhdyWk3-119" vertex="1">
          <mxGeometry y="120" width="175" height="30" as="geometry" />
        </mxCell>
        <mxCell id="kmndzjtyYsxwTEhdyWk3-132" value="sign up invalid (not enough room)&amp;nbsp; + Toast" style="text;html=1;align=center;verticalAlign=middle;resizable=0;points=[];autosize=1;strokeColor=none;fillColor=none;" parent="1" vertex="1">
          <mxGeometry x="90" y="-130" width="250" height="30" as="geometry" />
        </mxCell>
        <mxCell id="kmndzjtyYsxwTEhdyWk3-155" value="Attendance list" style="swimlane;fontStyle=0;childLayout=stackLayout;horizontal=1;startSize=30;horizontalStack=0;resizeParent=1;resizeParentMax=0;resizeLast=0;collapsible=1;marginBottom=0;whiteSpace=wrap;html=1;" parent="1" vertex="1">
          <mxGeometry x="770" y="330" width="140" height="150" as="geometry" />
        </mxCell>
        <mxCell id="kmndzjtyYsxwTEhdyWk3-156" value="Display list of attendees" style="text;strokeColor=none;fillColor=none;align=left;verticalAlign=middle;spacingLeft=4;spacingRight=4;overflow=hidden;points=[[0,0.5],[1,0.5]];portConstraint=eastwest;rotatable=0;whiteSpace=wrap;html=1;" parent="kmndzjtyYsxwTEhdyWk3-155" vertex="1">
          <mxGeometry y="30" width="140" height="30" as="geometry" />
        </mxCell>
        <mxCell id="kmndzjtyYsxwTEhdyWk3-157" value="Select attendee" style="text;strokeColor=none;fillColor=none;align=left;verticalAlign=middle;spacingLeft=4;spacingRight=4;overflow=hidden;points=[[0,0.5],[1,0.5]];portConstraint=eastwest;rotatable=0;whiteSpace=wrap;html=1;" parent="kmndzjtyYsxwTEhdyWk3-155" vertex="1">
          <mxGeometry y="60" width="140" height="30" as="geometry" />
        </mxCell>
        <mxCell id="F2HNqbarM3M1jNaJzqSq-53" value="Show who checked in and check in count" style="text;strokeColor=none;fillColor=none;align=left;verticalAlign=middle;spacingLeft=4;spacingRight=4;overflow=hidden;points=[[0,0.5],[1,0.5]];portConstraint=eastwest;rotatable=0;whiteSpace=wrap;html=1;" vertex="1" parent="kmndzjtyYsxwTEhdyWk3-155">
          <mxGeometry y="90" width="140" height="30" as="geometry" />
        </mxCell>
        <mxCell id="kmndzjtyYsxwTEhdyWk3-158" value="Return button" style="text;strokeColor=none;fillColor=none;align=left;verticalAlign=middle;spacingLeft=4;spacingRight=4;overflow=hidden;points=[[0,0.5],[1,0.5]];portConstraint=eastwest;rotatable=0;whiteSpace=wrap;html=1;" parent="kmndzjtyYsxwTEhdyWk3-155" vertex="1">
          <mxGeometry y="120" width="140" height="30" as="geometry" />
        </mxCell>
        <mxCell id="kmndzjtyYsxwTEhdyWk3-160" style="edgeStyle=orthogonalEdgeStyle;rounded=0;orthogonalLoop=1;jettySize=auto;html=1;exitX=1;exitY=0.5;exitDx=0;exitDy=0;entryX=0.005;entryY=0.161;entryDx=0;entryDy=0;entryPerimeter=0;" parent="1" source="kmndzjtyYsxwTEhdyWk3-157" target="kmndzjtyYsxwTEhdyWk3-59" edge="1">
          <mxGeometry relative="1" as="geometry" />
        </mxCell>
        <mxCell id="kmndzjtyYsxwTEhdyWk3-161" style="edgeStyle=orthogonalEdgeStyle;rounded=0;orthogonalLoop=1;jettySize=auto;html=1;exitX=0;exitY=0.5;exitDx=0;exitDy=0;entryX=1.008;entryY=0.051;entryDx=0;entryDy=0;entryPerimeter=0;" parent="1" source="kmndzjtyYsxwTEhdyWk3-158" target="kmndzjtyYsxwTEhdyWk3-48" edge="1">
          <mxGeometry relative="1" as="geometry" />
        </mxCell>
        <mxCell id="kmndzjtyYsxwTEhdyWk3-162" style="edgeStyle=orthogonalEdgeStyle;rounded=0;orthogonalLoop=1;jettySize=auto;html=1;exitX=1;exitY=0.5;exitDx=0;exitDy=0;entryX=-0.008;entryY=0.133;entryDx=0;entryDy=0;entryPerimeter=0;" parent="1" source="kmndzjtyYsxwTEhdyWk3-49" target="kmndzjtyYsxwTEhdyWk3-155" edge="1">
          <mxGeometry relative="1" as="geometry" />
        </mxCell>
        <mxCell id="kmndzjtyYsxwTEhdyWk3-163" style="edgeStyle=orthogonalEdgeStyle;rounded=0;orthogonalLoop=1;jettySize=auto;html=1;exitX=1;exitY=0.5;exitDx=0;exitDy=0;entryX=0.75;entryY=0;entryDx=0;entryDy=0;" parent="1" source="kmndzjtyYsxwTEhdyWk3-61" target="kmndzjtyYsxwTEhdyWk3-155" edge="1">
          <mxGeometry relative="1" as="geometry" />
        </mxCell>
        <mxCell id="kmndzjtyYsxwTEhdyWk3-164" value="Toast to &lt;br&gt;attendee screen" style="text;html=1;align=left;verticalAlign=middle;resizable=0;points=[];autosize=1;strokeColor=none;fillColor=none;" parent="1" vertex="1">
          <mxGeometry x="440" y="575" width="110" height="40" as="geometry" />
        </mxCell>
        <mxCell id="kmndzjtyYsxwTEhdyWk3-209" style="edgeStyle=orthogonalEdgeStyle;rounded=0;orthogonalLoop=1;jettySize=auto;html=1;exitX=0;exitY=0.5;exitDx=0;exitDy=0;entryX=0.004;entryY=0.085;entryDx=0;entryDy=0;entryPerimeter=0;" parent="1" source="kmndzjtyYsxwTEhdyWk3-28" target="kmndzjtyYsxwTEhdyWk3-5" edge="1">
          <mxGeometry relative="1" as="geometry" />
        </mxCell>
        <mxCell id="kmndzjtyYsxwTEhdyWk3-213" style="edgeStyle=orthogonalEdgeStyle;rounded=0;orthogonalLoop=1;jettySize=auto;html=1;exitX=1;exitY=0.5;exitDx=0;exitDy=0;exitPerimeter=0;entryX=-0.004;entryY=0.125;entryDx=0;entryDy=0;entryPerimeter=0;" parent="1" source="kmndzjtyYsxwTEhdyWk3-90" target="kmndzjtyYsxwTEhdyWk3-31" edge="1">
          <mxGeometry relative="1" as="geometry">
            <mxPoint x="-630" y="685" as="sourcePoint" />
          </mxGeometry>
        </mxCell>
        <mxCell id="kmndzjtyYsxwTEhdyWk3-218" style="edgeStyle=orthogonalEdgeStyle;rounded=0;orthogonalLoop=1;jettySize=auto;html=1;exitX=0;exitY=0.5;exitDx=0;exitDy=0;entryX=0.25;entryY=0;entryDx=0;entryDy=0;" parent="1" source="kmndzjtyYsxwTEhdyWk3-128" target="kmndzjtyYsxwTEhdyWk3-31" edge="1">
          <mxGeometry relative="1" as="geometry">
            <Array as="points">
              <mxPoint x="-320" y="280" />
              <mxPoint x="-532" y="280" />
            </Array>
          </mxGeometry>
        </mxCell>
        <mxCell id="kmndzjtyYsxwTEhdyWk3-231" style="edgeStyle=orthogonalEdgeStyle;rounded=0;orthogonalLoop=1;jettySize=auto;html=1;exitX=1;exitY=0.5;exitDx=0;exitDy=0;entryX=0.886;entryY=0.02;entryDx=0;entryDy=0;entryPerimeter=0;" parent="1" source="kmndzjtyYsxwTEhdyWk3-10" target="kmndzjtyYsxwTEhdyWk3-27" edge="1">
          <mxGeometry relative="1" as="geometry">
            <Array as="points">
              <mxPoint x="-460" y="-5" />
              <mxPoint x="-460" y="100" />
              <mxPoint x="-566" y="100" />
            </Array>
          </mxGeometry>
        </mxCell>
        <mxCell id="kmndzjtyYsxwTEhdyWk3-230" style="edgeStyle=orthogonalEdgeStyle;rounded=0;orthogonalLoop=1;jettySize=auto;html=1;exitX=1;exitY=0.5;exitDx=0;exitDy=0;entryX=0.75;entryY=0;entryDx=0;entryDy=0;" parent="1" source="kmndzjtyYsxwTEhdyWk3-11" target="kmndzjtyYsxwTEhdyWk3-27" edge="1">
          <mxGeometry relative="1" as="geometry">
            <mxPoint x="-610" y="100" as="targetPoint" />
            <Array as="points">
              <mxPoint x="-520" y="25" />
              <mxPoint x="-520" y="80" />
              <mxPoint x="-585" y="80" />
            </Array>
          </mxGeometry>
        </mxCell>
        <mxCell id="kmndzjtyYsxwTEhdyWk3-243" style="edgeStyle=orthogonalEdgeStyle;rounded=0;orthogonalLoop=1;jettySize=auto;html=1;exitX=1;exitY=0.5;exitDx=0;exitDy=0;entryX=0.002;entryY=0.044;entryDx=0;entryDy=0;entryPerimeter=0;" parent="1" source="F2HNqbarM3M1jNaJzqSq-40" target="kmndzjtyYsxwTEhdyWk3-119" edge="1">
          <mxGeometry relative="1" as="geometry">
            <Array as="points" />
          </mxGeometry>
        </mxCell>
        <mxCell id="kmndzjtyYsxwTEhdyWk3-247" style="edgeStyle=orthogonalEdgeStyle;rounded=0;orthogonalLoop=1;jettySize=auto;html=1;exitX=1;exitY=0.5;exitDx=0;exitDy=0;entryX=0.25;entryY=0.5;entryDx=0;entryDy=0;entryPerimeter=0;" parent="1" source="F2HNqbarM3M1jNaJzqSq-14" target="kmndzjtyYsxwTEhdyWk3-90" edge="1">
          <mxGeometry relative="1" as="geometry">
            <Array as="points">
              <mxPoint x="-830" y="465" />
              <mxPoint x="-710" y="465" />
              <mxPoint x="-710" y="490" />
              <mxPoint x="-620" y="490" />
            </Array>
          </mxGeometry>
        </mxCell>
        <mxCell id="kmndzjtyYsxwTEhdyWk3-254" value="" style="shape=flexArrow;endArrow=classic;html=1;rounded=0;" parent="1" edge="1">
          <mxGeometry width="50" height="50" relative="1" as="geometry">
            <mxPoint x="-870" y="180" as="sourcePoint" />
            <mxPoint x="-810" y="180" as="targetPoint" />
          </mxGeometry>
        </mxCell>
        <mxCell id="kmndzjtyYsxwTEhdyWk3-257" value="" style="shape=flexArrow;endArrow=classic;html=1;rounded=0;" parent="1" edge="1">
          <mxGeometry width="50" height="50" relative="1" as="geometry">
            <mxPoint x="-640" y="100" as="sourcePoint" />
            <mxPoint x="-640" y="150" as="targetPoint" />
          </mxGeometry>
        </mxCell>
        <mxCell id="kmndzjtyYsxwTEhdyWk3-275" style="edgeStyle=orthogonalEdgeStyle;rounded=0;orthogonalLoop=1;jettySize=auto;html=1;exitX=0;exitY=0.5;exitDx=0;exitDy=0;entryX=0.75;entryY=0;entryDx=0;entryDy=0;" parent="1" source="kmndzjtyYsxwTEhdyWk3-80" target="kmndzjtyYsxwTEhdyWk3-119" edge="1">
          <mxGeometry relative="1" as="geometry" />
        </mxCell>
        <mxCell id="kmndzjtyYsxwTEhdyWk3-276" style="edgeStyle=orthogonalEdgeStyle;rounded=0;orthogonalLoop=1;jettySize=auto;html=1;exitX=1;exitY=0.5;exitDx=0;exitDy=0;entryX=0.5;entryY=0;entryDx=0;entryDy=0;" parent="1" source="kmndzjtyYsxwTEhdyWk3-262" target="kmndzjtyYsxwTEhdyWk3-48" edge="1">
          <mxGeometry relative="1" as="geometry">
            <Array as="points">
              <mxPoint x="250" y="550" />
              <mxPoint x="250" y="240" />
              <mxPoint x="530" y="240" />
            </Array>
          </mxGeometry>
        </mxCell>
        <mxCell id="kmndzjtyYsxwTEhdyWk3-278" style="edgeStyle=orthogonalEdgeStyle;rounded=0;orthogonalLoop=1;jettySize=auto;html=1;exitX=0;exitY=0.5;exitDx=0;exitDy=0;entryX=0.997;entryY=0.159;entryDx=0;entryDy=0;entryPerimeter=0;" parent="1" source="kmndzjtyYsxwTEhdyWk3-190" target="kmndzjtyYsxwTEhdyWk3-27" edge="1">
          <mxGeometry relative="1" as="geometry">
            <Array as="points">
              <mxPoint x="400" y="495" />
              <mxPoint x="400" y="630" />
              <mxPoint x="-530" y="630" />
              <mxPoint x="-530" y="179" />
            </Array>
          </mxGeometry>
        </mxCell>
        <mxCell id="kmndzjtyYsxwTEhdyWk3-279" style="edgeStyle=orthogonalEdgeStyle;rounded=0;orthogonalLoop=1;jettySize=auto;html=1;exitX=1;exitY=0.5;exitDx=0;exitDy=0;entryX=-0.004;entryY=0.074;entryDx=0;entryDy=0;entryPerimeter=0;" parent="1" source="kmndzjtyYsxwTEhdyWk3-263" target="kmndzjtyYsxwTEhdyWk3-40" edge="1">
          <mxGeometry relative="1" as="geometry">
            <Array as="points">
              <mxPoint x="280" y="580" />
              <mxPoint x="280" y="220" />
              <mxPoint x="460" y="220" />
              <mxPoint x="460" y="-88" />
              <mxPoint x="739" y="-88" />
            </Array>
          </mxGeometry>
        </mxCell>
        <mxCell id="kmndzjtyYsxwTEhdyWk3-280" style="edgeStyle=orthogonalEdgeStyle;rounded=0;orthogonalLoop=1;jettySize=auto;html=1;exitX=0;exitY=0.5;exitDx=0;exitDy=0;entryX=0.75;entryY=0;entryDx=0;entryDy=0;" parent="1" source="kmndzjtyYsxwTEhdyWk3-185" target="kmndzjtyYsxwTEhdyWk3-258" edge="1">
          <mxGeometry relative="1" as="geometry">
            <Array as="points">
              <mxPoint x="160" y="200" />
              <mxPoint x="160" y="455" />
            </Array>
          </mxGeometry>
        </mxCell>
        <mxCell id="kmndzjtyYsxwTEhdyWk3-281" style="edgeStyle=orthogonalEdgeStyle;rounded=0;orthogonalLoop=1;jettySize=auto;html=1;exitX=1;exitY=0.5;exitDx=0;exitDy=0;entryX=0.998;entryY=0.126;entryDx=0;entryDy=0;entryPerimeter=0;" parent="1" source="kmndzjtyYsxwTEhdyWk3-44" target="kmndzjtyYsxwTEhdyWk3-258" edge="1">
          <mxGeometry relative="1" as="geometry">
            <Array as="points">
              <mxPoint x="950" y="160" />
              <mxPoint x="950" y="490" />
              <mxPoint x="205" y="490" />
            </Array>
          </mxGeometry>
        </mxCell>
        <mxCell id="kmndzjtyYsxwTEhdyWk3-285" style="edgeStyle=orthogonalEdgeStyle;rounded=0;orthogonalLoop=1;jettySize=auto;html=1;exitX=1;exitY=0.5;exitDx=0;exitDy=0;entryX=0;entryY=0.092;entryDx=0;entryDy=0;entryPerimeter=0;" parent="1" source="kmndzjtyYsxwTEhdyWk3-223" target="kmndzjtyYsxwTEhdyWk3-77" edge="1">
          <mxGeometry relative="1" as="geometry">
            <Array as="points">
              <mxPoint x="-130" y="245" />
              <mxPoint x="-130" y="-79" />
            </Array>
          </mxGeometry>
        </mxCell>
        <mxCell id="F2HNqbarM3M1jNaJzqSq-11" value="Scanner" style="swimlane;fontStyle=0;childLayout=stackLayout;horizontal=1;startSize=30;horizontalStack=0;resizeParent=1;resizeParentMax=0;resizeLast=0;collapsible=1;marginBottom=0;whiteSpace=wrap;html=1;" vertex="1" parent="1">
          <mxGeometry x="-970" y="370" width="140" height="120" as="geometry" />
        </mxCell>
        <mxCell id="F2HNqbarM3M1jNaJzqSq-12" value="Home" style="text;strokeColor=none;fillColor=none;align=left;verticalAlign=middle;spacingLeft=4;spacingRight=4;overflow=hidden;points=[[0,0.5],[1,0.5]];portConstraint=eastwest;rotatable=0;whiteSpace=wrap;html=1;" vertex="1" parent="F2HNqbarM3M1jNaJzqSq-11">
          <mxGeometry y="30" width="140" height="30" as="geometry" />
        </mxCell>
        <mxCell id="F2HNqbarM3M1jNaJzqSq-13" value="Notificatiion" style="text;strokeColor=none;fillColor=none;align=left;verticalAlign=middle;spacingLeft=4;spacingRight=4;overflow=hidden;points=[[0,0.5],[1,0.5]];portConstraint=eastwest;rotatable=0;whiteSpace=wrap;html=1;" vertex="1" parent="F2HNqbarM3M1jNaJzqSq-11">
          <mxGeometry y="60" width="140" height="30" as="geometry" />
        </mxCell>
        <mxCell id="F2HNqbarM3M1jNaJzqSq-14" value="Scan" style="text;strokeColor=none;fillColor=none;align=left;verticalAlign=middle;spacingLeft=4;spacingRight=4;overflow=hidden;points=[[0,0.5],[1,0.5]];portConstraint=eastwest;rotatable=0;whiteSpace=wrap;html=1;" vertex="1" parent="F2HNqbarM3M1jNaJzqSq-11">
          <mxGeometry y="90" width="140" height="30" as="geometry" />
        </mxCell>
        <mxCell id="F2HNqbarM3M1jNaJzqSq-17" style="edgeStyle=orthogonalEdgeStyle;rounded=0;orthogonalLoop=1;jettySize=auto;html=1;exitX=0;exitY=0.5;exitDx=0;exitDy=0;entryX=0.8;entryY=0.017;entryDx=0;entryDy=0;entryPerimeter=0;" edge="1" parent="1" source="kmndzjtyYsxwTEhdyWk3-29" target="F2HNqbarM3M1jNaJzqSq-11">
          <mxGeometry relative="1" as="geometry" />
        </mxCell>
        <mxCell id="F2HNqbarM3M1jNaJzqSq-21" style="edgeStyle=orthogonalEdgeStyle;rounded=0;orthogonalLoop=1;jettySize=auto;html=1;exitX=1;exitY=0.5;exitDx=0;exitDy=0;entryX=0;entryY=0.112;entryDx=0;entryDy=0;entryPerimeter=0;" edge="1" parent="1" source="F2HNqbarM3M1jNaJzqSq-10" target="kmndzjtyYsxwTEhdyWk3-100">
          <mxGeometry relative="1" as="geometry" />
        </mxCell>
        <mxCell id="F2HNqbarM3M1jNaJzqSq-22" style="edgeStyle=orthogonalEdgeStyle;rounded=0;orthogonalLoop=1;jettySize=auto;html=1;exitX=0;exitY=0.5;exitDx=0;exitDy=0;entryX=0.429;entryY=1;entryDx=0;entryDy=0;entryPerimeter=0;" edge="1" parent="1" source="F2HNqbarM3M1jNaJzqSq-19" target="F2HNqbarM3M1jNaJzqSq-14">
          <mxGeometry relative="1" as="geometry" />
        </mxCell>
        <mxCell id="F2HNqbarM3M1jNaJzqSq-23" style="edgeStyle=orthogonalEdgeStyle;rounded=0;orthogonalLoop=1;jettySize=auto;html=1;exitX=0;exitY=0.5;exitDx=0;exitDy=0;entryX=1;entryY=0.056;entryDx=0;entryDy=0;entryPerimeter=0;" edge="1" parent="1" source="F2HNqbarM3M1jNaJzqSq-20" target="kmndzjtyYsxwTEhdyWk3-27">
          <mxGeometry relative="1" as="geometry">
            <Array as="points">
              <mxPoint x="-510" y="580" />
              <mxPoint x="-510" y="170" />
            </Array>
          </mxGeometry>
        </mxCell>
        <mxCell id="F2HNqbarM3M1jNaJzqSq-24" style="edgeStyle=orthogonalEdgeStyle;rounded=0;orthogonalLoop=1;jettySize=auto;html=1;exitX=1;exitY=0.5;exitDx=0;exitDy=0;entryX=0;entryY=0.133;entryDx=0;entryDy=0;entryPerimeter=0;" edge="1" parent="1" source="F2HNqbarM3M1jNaJzqSq-12" target="kmndzjtyYsxwTEhdyWk3-27">
          <mxGeometry relative="1" as="geometry" />
        </mxCell>
        <mxCell id="F2HNqbarM3M1jNaJzqSq-25" value="Text" style="text;html=1;align=center;verticalAlign=middle;whiteSpace=wrap;rounded=0;" vertex="1" parent="1">
          <mxGeometry x="-590" y="470" width="60" height="30" as="geometry" />
        </mxCell>
        <mxCell id="F2HNqbarM3M1jNaJzqSq-26" value="Text" style="text;html=1;align=center;verticalAlign=middle;whiteSpace=wrap;rounded=0;" vertex="1" parent="1">
          <mxGeometry x="-590" y="470" width="60" height="30" as="geometry" />
        </mxCell>
        <mxCell id="F2HNqbarM3M1jNaJzqSq-27" value="Checked in" style="text;html=1;align=center;verticalAlign=middle;whiteSpace=wrap;rounded=0;" vertex="1" parent="1">
          <mxGeometry x="-700" y="660" width="60" height="30" as="geometry" />
        </mxCell>
        <mxCell id="F2HNqbarM3M1jNaJzqSq-29" style="edgeStyle=orthogonalEdgeStyle;rounded=0;orthogonalLoop=1;jettySize=auto;html=1;entryX=0;entryY=0.133;entryDx=0;entryDy=0;entryPerimeter=0;" edge="1" parent="1" source="kmndzjtyYsxwTEhdyWk3-112" target="kmndzjtyYsxwTEhdyWk3-27">
          <mxGeometry relative="1" as="geometry">
            <mxPoint x="-740" y="160" as="targetPoint" />
            <Array as="points">
              <mxPoint x="-710" y="855" />
              <mxPoint x="-710" y="180" />
            </Array>
          </mxGeometry>
        </mxCell>
        <mxCell id="F2HNqbarM3M1jNaJzqSq-39" style="edgeStyle=orthogonalEdgeStyle;rounded=0;orthogonalLoop=1;jettySize=auto;html=1;exitX=1;exitY=0.5;exitDx=0;exitDy=0;entryX=0.993;entryY=0.117;entryDx=0;entryDy=0;entryPerimeter=0;" edge="1" parent="1" source="kmndzjtyYsxwTEhdyWk3-112" target="kmndzjtyYsxwTEhdyWk3-77">
          <mxGeometry relative="1" as="geometry">
            <Array as="points">
              <mxPoint x="-90" y="855" />
              <mxPoint x="-90" y="60" />
              <mxPoint x="30" y="60" />
              <mxPoint x="30" y="-76" />
            </Array>
          </mxGeometry>
        </mxCell>
        <mxCell id="F2HNqbarM3M1jNaJzqSq-41" value="" style="edgeStyle=orthogonalEdgeStyle;rounded=0;orthogonalLoop=1;jettySize=auto;html=1;exitX=1;exitY=0.5;exitDx=0;exitDy=0;entryX=0.367;entryY=0.007;entryDx=0;entryDy=0;entryPerimeter=0;" edge="1" parent="1" source="kmndzjtyYsxwTEhdyWk3-193" target="kmndzjtyYsxwTEhdyWk3-258">
          <mxGeometry relative="1" as="geometry">
            <mxPoint x="-550" y="235" as="sourcePoint" />
            <mxPoint x="-380" y="380" as="targetPoint" />
            <Array as="points">
              <mxPoint x="-435" y="235" />
              <mxPoint x="-435" y="270" />
              <mxPoint x="-380" y="270" />
              <mxPoint x="-380" y="410" />
              <mxPoint x="94" y="410" />
            </Array>
          </mxGeometry>
        </mxCell>
        <mxCell id="F2HNqbarM3M1jNaJzqSq-40" value="OR" style="shape=xor;whiteSpace=wrap;html=1;rotation=0;" vertex="1" parent="1">
          <mxGeometry x="-510" y="215" width="60" height="40" as="geometry" />
        </mxCell>
        <mxCell id="F2HNqbarM3M1jNaJzqSq-43" value="" style="edgeStyle=orthogonalEdgeStyle;rounded=0;orthogonalLoop=1;jettySize=auto;html=1;exitX=1;exitY=0.5;exitDx=0;exitDy=0;entryX=1.002;entryY=0.088;entryDx=0;entryDy=0;entryPerimeter=0;" edge="1" parent="1" source="kmndzjtyYsxwTEhdyWk3-282" target="kmndzjtyYsxwTEhdyWk3-31">
          <mxGeometry relative="1" as="geometry">
            <mxPoint x="269.4736842105263" y="850" as="targetPoint" />
            <mxPoint x="20" y="-15" as="sourcePoint" />
            <Array as="points">
              <mxPoint x="60" y="-15" />
              <mxPoint x="60" y="100" />
              <mxPoint x="-50" y="100" />
              <mxPoint x="-50" y="742" />
            </Array>
          </mxGeometry>
        </mxCell>
        <mxCell id="kmndzjtyYsxwTEhdyWk3-258" value="Organizer Event List" style="swimlane;fontStyle=0;childLayout=stackLayout;horizontal=1;startSize=30;horizontalStack=0;resizeParent=1;resizeParentMax=0;resizeLast=0;collapsible=1;marginBottom=0;whiteSpace=wrap;html=1;" parent="1" vertex="1">
          <mxGeometry x="30" y="455" width="175" height="160" as="geometry" />
        </mxCell>
        <mxCell id="kmndzjtyYsxwTEhdyWk3-261" value="Displays&amp;nbsp;events organizer created" style="text;strokeColor=none;fillColor=none;align=left;verticalAlign=middle;spacingLeft=4;spacingRight=4;overflow=hidden;points=[[0,0.5],[1,0.5]];portConstraint=eastwest;rotatable=0;whiteSpace=wrap;html=1;" parent="kmndzjtyYsxwTEhdyWk3-258" vertex="1">
          <mxGeometry y="30" width="175" height="50" as="geometry" />
        </mxCell>
        <mxCell id="kmndzjtyYsxwTEhdyWk3-262" value="Select event in organizer list" style="text;strokeColor=none;fillColor=none;align=left;verticalAlign=middle;spacingLeft=4;spacingRight=4;overflow=hidden;points=[[0,0.5],[1,0.5]];portConstraint=eastwest;rotatable=0;whiteSpace=wrap;html=1;" parent="kmndzjtyYsxwTEhdyWk3-258" vertex="1">
          <mxGeometry y="80" width="175" height="30" as="geometry" />
        </mxCell>
        <mxCell id="kmndzjtyYsxwTEhdyWk3-263" value="Create event" style="text;strokeColor=none;fillColor=none;align=left;verticalAlign=middle;spacingLeft=4;spacingRight=4;overflow=hidden;points=[[0,0.5],[1,0.5]];portConstraint=eastwest;rotatable=0;whiteSpace=wrap;html=1;" parent="kmndzjtyYsxwTEhdyWk3-258" vertex="1">
          <mxGeometry y="110" width="175" height="30" as="geometry" />
        </mxCell>
        <mxCell id="kmndzjtyYsxwTEhdyWk3-266" value="Return button" style="text;strokeColor=none;fillColor=none;align=left;verticalAlign=middle;spacingLeft=4;spacingRight=4;overflow=hidden;points=[[0,0.5],[1,0.5]];portConstraint=eastwest;rotatable=0;whiteSpace=wrap;html=1;" parent="kmndzjtyYsxwTEhdyWk3-258" vertex="1">
          <mxGeometry y="140" width="175" height="20" as="geometry" />
        </mxCell>
        <mxCell id="F2HNqbarM3M1jNaJzqSq-46" value="Event Page (Attendee)" style="swimlane;fontStyle=0;childLayout=stackLayout;horizontal=1;startSize=30;horizontalStack=0;resizeParent=1;resizeParentMax=0;resizeLast=0;collapsible=1;marginBottom=0;whiteSpace=wrap;html=1;" vertex="1" parent="1">
          <mxGeometry x="250" y="-60" width="140" height="90" as="geometry" />
        </mxCell>
        <mxCell id="F2HNqbarM3M1jNaJzqSq-47" value="Display event details&lt;div&gt;and poster&lt;/div&gt;" style="text;strokeColor=none;fillColor=none;align=left;verticalAlign=middle;spacingLeft=4;spacingRight=4;overflow=hidden;points=[[0,0.5],[1,0.5]];portConstraint=eastwest;rotatable=0;whiteSpace=wrap;html=1;" vertex="1" parent="F2HNqbarM3M1jNaJzqSq-46">
          <mxGeometry y="30" width="140" height="30" as="geometry" />
        </mxCell>
        <mxCell id="F2HNqbarM3M1jNaJzqSq-49" value="Return button" style="text;strokeColor=none;fillColor=none;align=left;verticalAlign=middle;spacingLeft=4;spacingRight=4;overflow=hidden;points=[[0,0.5],[1,0.5]];portConstraint=eastwest;rotatable=0;whiteSpace=wrap;html=1;" vertex="1" parent="F2HNqbarM3M1jNaJzqSq-46">
          <mxGeometry y="60" width="140" height="30" as="geometry" />
        </mxCell>
        <mxCell id="F2HNqbarM3M1jNaJzqSq-45" style="edgeStyle=orthogonalEdgeStyle;rounded=0;orthogonalLoop=1;jettySize=auto;html=1;exitX=1;exitY=0.5;exitDx=0;exitDy=0;entryX=0.25;entryY=0;entryDx=0;entryDy=0;" edge="1" parent="1" source="kmndzjtyYsxwTEhdyWk3-128" target="F2HNqbarM3M1jNaJzqSq-46">
          <mxGeometry relative="1" as="geometry">
            <mxPoint x="170" y="40" as="targetPoint" />
            <Array as="points">
              <mxPoint x="170" y="215" />
              <mxPoint x="170" y="-80" />
              <mxPoint x="285" y="-80" />
            </Array>
          </mxGeometry>
        </mxCell>
        <mxCell id="F2HNqbarM3M1jNaJzqSq-50" style="edgeStyle=orthogonalEdgeStyle;rounded=0;orthogonalLoop=1;jettySize=auto;html=1;entryX=0.932;entryY=0.026;entryDx=0;entryDy=0;entryPerimeter=0;" edge="1" parent="1" source="F2HNqbarM3M1jNaJzqSq-49" target="kmndzjtyYsxwTEhdyWk3-258">
          <mxGeometry relative="1" as="geometry" />
        </mxCell>
        <mxCell id="F2HNqbarM3M1jNaJzqSq-51" style="edgeStyle=orthogonalEdgeStyle;rounded=0;orthogonalLoop=1;jettySize=auto;html=1;exitX=1;exitY=0.5;exitDx=0;exitDy=0;" edge="1" parent="1" source="F2HNqbarM3M1jNaJzqSq-49">
          <mxGeometry relative="1" as="geometry">
            <mxPoint x="-150" y="130" as="targetPoint" />
            <Array as="points">
              <mxPoint x="410" y="15" />
              <mxPoint x="410" y="130" />
            </Array>
          </mxGeometry>
        </mxCell>
        <mxCell id="F2HNqbarM3M1jNaJzqSq-56" value="Map (Organizer)" style="swimlane;fontStyle=0;childLayout=stackLayout;horizontal=1;startSize=30;horizontalStack=0;resizeParent=1;resizeParentMax=0;resizeLast=0;collapsible=1;marginBottom=0;whiteSpace=wrap;html=1;" vertex="1" parent="1">
          <mxGeometry x="-970" y="810" width="140" height="90" as="geometry" />
        </mxCell>
        <mxCell id="F2HNqbarM3M1jNaJzqSq-57" value="Display location of user who checked in" style="text;strokeColor=none;fillColor=none;align=left;verticalAlign=middle;spacingLeft=4;spacingRight=4;overflow=hidden;points=[[0,0.5],[1,0.5]];portConstraint=eastwest;rotatable=0;whiteSpace=wrap;html=1;" vertex="1" parent="F2HNqbarM3M1jNaJzqSq-56">
          <mxGeometry y="30" width="140" height="30" as="geometry" />
        </mxCell>
        <mxCell id="F2HNqbarM3M1jNaJzqSq-66" value="Return button" style="text;strokeColor=none;fillColor=none;align=left;verticalAlign=middle;spacingLeft=4;spacingRight=4;overflow=hidden;points=[[0,0.5],[1,0.5]];portConstraint=eastwest;rotatable=0;whiteSpace=wrap;html=1;" vertex="1" parent="F2HNqbarM3M1jNaJzqSq-56">
          <mxGeometry y="60" width="140" height="30" as="geometry" />
        </mxCell>
        <mxCell id="F2HNqbarM3M1jNaJzqSq-55" style="edgeStyle=orthogonalEdgeStyle;rounded=0;orthogonalLoop=1;jettySize=auto;html=1;exitX=1;exitY=0.5;exitDx=0;exitDy=0;entryX=0.75;entryY=0;entryDx=0;entryDy=0;exitPerimeter=0;" edge="1" parent="1" source="F2HNqbarM3M1jNaJzqSq-61" target="F2HNqbarM3M1jNaJzqSq-56">
          <mxGeometry relative="1" as="geometry">
            <mxPoint x="-790" y="670" as="targetPoint" />
            <Array as="points">
              <mxPoint x="-820" y="730" />
              <mxPoint x="-865" y="730" />
            </Array>
          </mxGeometry>
        </mxCell>
        <mxCell id="F2HNqbarM3M1jNaJzqSq-62" value="" style="edgeStyle=orthogonalEdgeStyle;rounded=0;orthogonalLoop=1;jettySize=auto;html=1;exitX=0;exitY=0.5;exitDx=0;exitDy=0;entryX=0.25;entryY=0.5;entryDx=0;entryDy=0;entryPerimeter=0;" edge="1" parent="1" source="F2HNqbarM3M1jNaJzqSq-54" target="F2HNqbarM3M1jNaJzqSq-61">
          <mxGeometry relative="1" as="geometry">
            <mxPoint x="-825" y="780" as="targetPoint" />
            <mxPoint x="-690" y="325" as="sourcePoint" />
          </mxGeometry>
        </mxCell>
        <mxCell id="F2HNqbarM3M1jNaJzqSq-65" style="edgeStyle=orthogonalEdgeStyle;rounded=0;orthogonalLoop=1;jettySize=auto;html=1;exitX=1;exitY=0.5;exitDx=0;exitDy=0;exitPerimeter=0;entryX=0.75;entryY=0;entryDx=0;entryDy=0;" edge="1" parent="1" source="F2HNqbarM3M1jNaJzqSq-61" target="F2HNqbarM3M1jNaJzqSq-63">
          <mxGeometry relative="1" as="geometry" />
        </mxCell>
        <mxCell id="F2HNqbarM3M1jNaJzqSq-61" value="OR" style="shape=xor;whiteSpace=wrap;html=1;rotation=90;" vertex="1" parent="1">
          <mxGeometry x="-850" y="655" width="60" height="40" as="geometry" />
        </mxCell>
        <mxCell id="F2HNqbarM3M1jNaJzqSq-63" value="Map (Attendee)" style="swimlane;fontStyle=0;childLayout=stackLayout;horizontal=1;startSize=30;horizontalStack=0;resizeParent=1;resizeParentMax=0;resizeLast=0;collapsible=1;marginBottom=0;whiteSpace=wrap;html=1;" vertex="1" parent="1">
          <mxGeometry x="-1080" y="700" width="140" height="90" as="geometry" />
        </mxCell>
        <mxCell id="F2HNqbarM3M1jNaJzqSq-67" value="Return button" style="text;strokeColor=none;fillColor=none;align=left;verticalAlign=middle;spacingLeft=4;spacingRight=4;overflow=hidden;points=[[0,0.5],[1,0.5]];portConstraint=eastwest;rotatable=0;whiteSpace=wrap;html=1;" vertex="1" parent="F2HNqbarM3M1jNaJzqSq-63">
          <mxGeometry y="30" width="140" height="30" as="geometry" />
        </mxCell>
        <mxCell id="F2HNqbarM3M1jNaJzqSq-64" value="Display nearby events" style="text;strokeColor=none;fillColor=none;align=left;verticalAlign=middle;spacingLeft=4;spacingRight=4;overflow=hidden;points=[[0,0.5],[1,0.5]];portConstraint=eastwest;rotatable=0;whiteSpace=wrap;html=1;" vertex="1" parent="F2HNqbarM3M1jNaJzqSq-63">
          <mxGeometry y="60" width="140" height="30" as="geometry" />
        </mxCell>
        <mxCell id="F2HNqbarM3M1jNaJzqSq-68" style="edgeStyle=orthogonalEdgeStyle;rounded=0;orthogonalLoop=1;jettySize=auto;html=1;exitX=1;exitY=0.5;exitDx=0;exitDy=0;entryX=0;entryY=0;entryDx=0;entryDy=0;" edge="1" parent="1" source="F2HNqbarM3M1jNaJzqSq-64" target="kmndzjtyYsxwTEhdyWk3-27">
          <mxGeometry relative="1" as="geometry">
            <Array as="points">
              <mxPoint x="-790" y="775" />
              <mxPoint x="-790" y="180" />
              <mxPoint x="-690" y="180" />
            </Array>
          </mxGeometry>
        </mxCell>
        <mxCell id="F2HNqbarM3M1jNaJzqSq-69" style="edgeStyle=orthogonalEdgeStyle;rounded=0;orthogonalLoop=1;jettySize=auto;html=1;exitX=1;exitY=0.25;exitDx=0;exitDy=0;entryX=0;entryY=0.083;entryDx=0;entryDy=0;entryPerimeter=0;" edge="1" parent="1" source="F2HNqbarM3M1jNaJzqSq-56" target="kmndzjtyYsxwTEhdyWk3-27">
          <mxGeometry relative="1" as="geometry">
            <Array as="points">
              <mxPoint x="-790" y="832" />
              <mxPoint x="-790" y="175" />
            </Array>
          </mxGeometry>
        </mxCell>
      </root>
    </mxGraphModel>
  </diagram>
</mxfile>
